<svg width="240" height="60" viewBox="0 0 240 60" xmlns="http://www.w3.org/2000/svg">
  <defs>
    <linearGradient id="logo-grad" x1="0%" y1="0%" x2="100%" y2="100%">
      <stop offset="0%" style="stop-color:#2563EB" />
      <stop offset="100%" style="stop-color:#10B981" />
    </linearGradient>
  </defs>
  <!-- Squircle Icon -->
  <rect x="10" y="5" width="50" height="50" rx="15" fill="url(#logo-grad)" />
  <!-- Handshake Icon (simplified) -->
  <g fill="white">
    <path d="M25 32c0 1.1-.9 2-2 2s-2-.9-2-2v-6c0-1.1.9-2 2-2s2 .9 2 2v6z" />
    <path d="M49 32c0 1.1-.9 2-2 2s-2-.9-2-2v-6c0-1.1.9-2 2-2s2 .9 2 2v6z" />
    <path d="M27 24s1-3 4-3 4 3 4 3 1 3 4 3 4-3 4-3" fill="none" stroke="white" stroke-width="3" stroke-linecap="round" />
    <path d="M27 36s1 3 4 3 4-3 4-3 1-3 4-3 4 3 4 3" fill="none" stroke="white" stroke-width="3" stroke-linecap="round" />
    <rect x="25" y="28" width="20" height="4" rx="2" />
  </g>
  <!-- Text -->
  <text x="70" y="38" font-family="system-ui, -apple-system, sans-serif" font-weight="900" font-size="32" fill="#1E293B">SkillBridge</text>
</svg>
