<svg width="960" height="760" viewBox="0 0 960 760" fill="none" xmlns="http://www.w3.org/2000/svg">
  <defs>
    <linearGradient id="bg" x1="70" y1="40" x2="890" y2="720" gradientUnits="userSpaceOnUse">
      <stop stop-color="#DCEBFF"/>
      <stop offset="1" stop-color="#EEF4FF"/>
    </linearGradient>
    <linearGradient id="card" x1="120" y1="180" x2="840" y2="610" gradientUnits="userSpaceOnUse">
      <stop stop-color="#FFFFFF"/>
      <stop offset="1" stop-color="#F8FAFF"/>
    </linearGradient>
    <linearGradient id="accent" x1="295" y1="335" x2="665" y2="335" gradientUnits="userSpaceOnUse">
      <stop stop-color="#2563EB"/>
      <stop offset="1" stop-color="#1D4ED8"/>
    </linearGradient>
  </defs>

  <rect x="40" y="30" width="880" height="700" rx="42" fill="url(#bg)"/>
  <rect x="100" y="145" width="760" height="470" rx="28" fill="url(#card)" stroke="#D6E3FF" stroke-width="2"/>

  <rect x="150" y="205" width="200" height="120" rx="18" fill="#EAF2FF"/>
  <circle cx="190" cy="247" r="22" fill="#2563EB"/>
  <rect x="225" y="230" width="95" height="12" rx="6" fill="#93B4F9"/>
  <rect x="225" y="252" width="70" height="10" rx="5" fill="#B9CEFC"/>
  <rect x="170" y="283" width="160" height="10" rx="5" fill="#CFE0FF"/>

  <rect x="610" y="205" width="200" height="120" rx="18" fill="#EAF2FF"/>
  <circle cx="650" cy="247" r="22" fill="#0EA5A1"/>
  <rect x="685" y="230" width="95" height="12" rx="6" fill="#8CD8D5"/>
  <rect x="685" y="252" width="70" height="10" rx="5" fill="#B4E9E7"/>
  <rect x="630" y="283" width="160" height="10" rx="5" fill="#D1F2F1"/>

  <rect x="295" y="300" width="370" height="70" rx="35" fill="url(#accent)"/>
  <circle cx="335" cy="335" r="16" fill="#FFFFFF"/>
  <circle cx="625" cy="335" r="16" fill="#FFFFFF"/>
  <path d="M365 335H595" stroke="#FFFFFF" stroke-width="8" stroke-linecap="round"/>

  <rect x="180" y="415" width="600" height="150" rx="20" fill="#F2F7FF"/>
  <rect x="210" y="448" width="220" height="14" rx="7" fill="#9FBDF7"/>
  <rect x="210" y="474" width="520" height="12" rx="6" fill="#C6D8FC"/>
  <rect x="210" y="497" width="470" height="12" rx="6" fill="#D8E5FF"/>
  <rect x="210" y="520" width="350" height="12" rx="6" fill="#E3EDFF"/>

  <circle cx="128" cy="120" r="12" fill="#2563EB" fill-opacity="0.25"/>
  <circle cx="858" cy="640" r="16" fill="#0EA5A1" fill-opacity="0.25"/>
  <circle cx="880" cy="112" r="10" fill="#2563EB" fill-opacity="0.2"/>
</svg>
